<svg width="595" height="136" viewBox="0 0 595 136" fill="none" xmlns="http://www.w3.org/2000/svg">
<path d="M125.943 94.9693L127.849 94.5293V135.156H111.276V32.4893H126.236L127.409 41.5827C129.854 38.7471 133.032 36.3515 136.943 34.396C140.854 32.4404 145.596 31.4627 151.169 31.4627C157.525 31.4627 163.147 33.0271 168.036 36.156C173.023 39.2849 176.885 43.6849 179.623 49.356C182.458 54.9293 183.876 61.5293 183.876 69.156C183.876 76.6849 182.458 83.2849 179.623 88.956C176.885 94.6271 173.072 99.0271 168.183 102.156C163.294 105.285 157.623 106.849 151.169 106.849C145.303 106.849 140.218 105.725 135.916 103.476C131.614 101.129 128.289 98.2938 125.943 94.9693ZM166.129 69.156C166.129 62.4093 164.32 56.9338 160.703 52.7293C157.183 48.5249 152.636 46.4227 147.063 46.4227C143.543 46.4227 140.316 47.3027 137.383 49.0627C134.547 50.8227 132.249 53.3649 130.489 56.6893C128.729 60.0138 127.849 64.1693 127.849 69.156C127.849 74.0449 128.729 78.2004 130.489 81.6227C132.249 84.9471 134.547 87.4893 137.383 89.2493C140.316 91.0093 143.543 91.8893 147.063 91.8893C152.636 91.8893 157.183 89.7871 160.703 85.5827C164.32 81.3782 166.129 75.9027 166.129 69.156Z" fill="black"/>
<path d="M211.095 94.9693L213.002 94.5293V135.156H196.429V32.4893H211.389L212.562 41.5827C215.006 38.7471 218.184 36.3515 222.095 34.396C226.006 32.4404 230.749 31.4627 236.322 31.4627C242.678 31.4627 248.3 33.0271 253.189 36.156C258.175 39.2849 262.038 43.6849 264.775 49.356C267.611 54.9293 269.029 61.5293 269.029 69.156C269.029 76.6849 267.611 83.2849 264.775 88.956C262.038 94.6271 258.224 99.0271 253.335 102.156C248.446 105.285 242.775 106.849 236.322 106.849C230.455 106.849 225.371 105.725 221.069 103.476C216.766 101.129 213.442 98.2938 211.095 94.9693ZM251.282 69.156C251.282 62.4093 249.473 56.9338 245.855 52.7293C242.335 48.5249 237.789 46.4227 232.215 46.4227C228.695 46.4227 225.469 47.3027 222.535 49.0627C219.7 50.8227 217.402 53.3649 215.642 56.6893C213.882 60.0138 213.002 64.1693 213.002 69.156C213.002 74.0449 213.882 78.2004 215.642 81.6227C217.402 84.9471 219.7 87.4893 222.535 89.2493C225.469 91.0093 228.695 91.8893 232.215 91.8893C237.789 91.8893 242.335 89.7871 245.855 85.5827C249.473 81.3782 251.282 75.9027 251.282 69.156Z" fill="black"/>
<path d="M360.718 32.4893H375.678L376.852 39.676C379.296 37.1338 382.18 35.1293 385.505 33.6627C388.927 32.196 392.594 31.4627 396.505 31.4627C402.274 31.4627 407.212 32.6849 411.318 35.1293C415.523 37.476 418.749 40.996 420.998 45.6893C423.247 50.2849 424.372 56.0538 424.372 62.996V105.823H407.798V65.196C407.798 59.036 406.527 54.3915 403.985 51.2627C401.54 48.1338 397.825 46.5693 392.838 46.5693C387.754 46.5693 383.892 48.1827 381.252 51.4093C378.612 54.5382 377.292 59.1827 377.292 65.3427V105.823H360.718V32.4893Z" fill="black"/>
<path d="M442.059 32.4893H458.632V105.823H442.059V32.4893ZM450.419 21.3427C447.388 21.3427 444.845 20.316 442.792 18.2627C440.739 16.2093 439.712 13.7649 439.712 10.9293C439.712 7.89821 440.739 5.35599 442.792 3.30265C444.845 1.24932 447.388 0.222656 450.419 0.222656C453.352 0.222656 455.845 1.24932 457.899 3.30265C459.952 5.35599 460.979 7.89821 460.979 10.9293C460.979 13.7649 459.952 16.2093 457.899 18.2627C455.845 20.316 453.352 21.3427 450.419 21.3427Z" fill="black"/>
<path d="M482.292 32.4893V11.956H499.159V32.4893H516.319V47.0093H499.159V79.5693C499.159 83.9693 499.99 87.0493 501.652 88.8093C503.314 90.4716 505.466 91.4004 508.106 91.596C510.843 91.6938 513.581 91.5471 516.319 91.156V105.236C512.115 106.116 507.959 106.36 503.852 105.969C499.843 105.676 496.226 104.6 492.999 102.743C489.772 100.787 487.181 97.9516 485.226 94.236C483.27 90.5204 482.292 85.6315 482.292 79.5693V47.0093H472.026V32.4893H482.292Z" fill="black"/>
<path d="M560.514 106.849C553.18 106.849 546.727 105.236 541.154 102.009C535.678 98.7827 531.376 94.2849 528.247 88.516C525.216 82.7471 523.7 76.0982 523.7 68.5693C523.7 61.4315 525.216 55.076 528.247 49.5027C531.278 43.9293 535.483 39.5293 540.86 36.3027C546.238 33.076 552.349 31.4627 559.194 31.4627C566.136 31.4627 572.247 32.9782 577.527 36.0093C582.807 39.0404 586.914 43.2938 589.847 48.7693C592.878 54.1471 594.394 60.4049 594.394 67.5427C594.394 68.716 594.345 69.9871 594.247 71.356C594.149 72.6271 594.003 73.996 593.807 75.4627H541.594C542.083 78.8849 543.158 81.8671 544.82 84.4093C546.58 86.8538 548.78 88.7604 551.42 90.1293C554.06 91.4982 557.091 92.1827 560.514 92.1827C564.62 92.1827 568.287 91.3515 571.514 89.6893C574.838 88.0271 577.136 85.8271 578.407 83.0893L592.927 87.9293C589.994 93.796 585.643 98.4404 579.874 101.863C574.105 105.187 567.651 106.849 560.514 106.849ZM576.354 61.9693C576.256 58.9382 575.425 56.2004 573.86 53.756C572.296 51.3115 570.243 49.4049 567.7 48.036C565.158 46.5693 562.323 45.836 559.194 45.836C556.456 45.836 553.865 46.5204 551.42 47.8893C548.976 49.2582 546.874 51.1649 545.114 53.6093C543.451 55.956 542.376 58.7427 541.887 61.9693H576.354Z" fill="black"/>
<path d="M282.074 32.3893H298.694V78.1343C298.694 81.2795 299.337 83.9958 300.624 86.2832C301.91 88.4991 303.662 90.1789 305.878 91.3226C308.165 92.3949 310.81 92.931 313.812 92.931C316.886 92.931 319.566 92.3949 321.854 91.3226C324.213 90.1789 326.035 88.4991 327.322 86.2832C328.609 83.9958 329.252 81.2795 329.252 78.1343V32.3893H345.872V76.8477C345.872 81.9228 344.978 86.3547 343.191 90.1432C341.475 93.9317 339.081 97.0769 336.007 99.5788C333.005 102.081 329.574 103.975 325.714 105.262C321.854 106.477 317.815 107.084 313.598 107.084C307.951 107.084 302.733 105.976 297.943 103.76C293.154 101.544 289.294 98.2206 286.363 93.7888C283.504 89.2854 282.074 83.6384 282.074 76.8477V32.3893Z" fill="black"/>
<path fill-rule="evenodd" clip-rule="evenodd" d="M18.7488 105.823H0.855469L37.2288 3.15599H66.8555L103.375 105.823H85.4821L76.7605 80.7427H27.5122L18.7488 105.823ZM49.5488 17.676H54.8288L71.7621 66.3693H32.5345L49.5488 17.676Z" fill="black"/>
</svg>
